<?xml version="1.0" encoding="utf-8"?>
<!-- Generator: Adobe Illustrator 24.0.3, SVG Export Plug-In . SVG Version: 6.00 Build 0)  -->
<svg version="1.1" id="Layer_1" xmlns="http://www.w3.org/2000/svg" xmlns:xlink="http://www.w3.org/1999/xlink" x="0px" y="0px"
	 viewBox="0 0 1404.5 791.3" style="enable-background:new 0 0 1404.5 791.3;" xml:space="preserve">
<style type="text/css">
	.st0{fill:#3DDB85;}
	.st1{fill:none;}
</style>
<path class="st0" d="M1025.5,591.2c-32.2,0-58.5-26.3-58.5-58.5s26.2-58.5,58.5-58.5c32.3,0,58.5,26.2,58.5,58.5
	C1084,565,1057.7,591.2,1025.5,591.2 M379,591.2c-32.2,0-58.5-26.3-58.5-58.5s26.2-58.5,58.5-58.5c32.2,0,58.5,26.2,58.5,58.5
	C437.5,565,411.3,591.2,379,591.2 M1046.5,238.9l116.9-202.4c6.7-11.6,2.7-26.5-8.9-33.2c-11.6-6.7-26.5-2.7-33.2,8.9l-118.3,205
	c-90.5-41.3-192.2-64.3-300.6-64.3s-210.1,23-300.6,64.3l-118.4-205c-6.7-11.6-21.6-15.6-33.2-8.9c-11.6,6.7-15.6,21.6-8.9,33.2
	l116.9,202.4C157.4,348.1,20.1,551.3,0,791.3h1404.5C1384.4,551.3,1247.2,348.1,1046.5,238.9"/>
<path class="st1" d="M0.1-547.7h2499.9v1339H0.1V-547.7z"/>
</svg>
