<svg id="Layer_1" data-name="Layer 1" xmlns="http://www.w3.org/2000/svg" viewBox="0 0 412.94 249.67">
  <defs>
    <style>
      .cls-1 {
        fill: #fff;
      }
    </style>
  </defs>
  <title>next</title>
  <path class="cls-1" d="M97.43,65.12h77.89v6.2H104.58V118H171.1v6.21H104.58v51.26h71.55v6.2H97.43Zm84.87,0h8.27l36.67,51.26,37.49-51.26L315.71,0,232,121.77l43.16,59.91h-8.6l-39.27-54.53-39.42,54.53h-8.44l43.48-59.91L182.3,65.12Zm95.89,6.2v-6.2H367v6.2H326.06V181.68h-7.14V71.32H278.19ZM0,65.12H8.92L132,249.67l-50.85-68L7.46,73.93,7.14,181.68H0ZM366.23,173.61a2.6,2.6,0,1,1,2.55-2.6,2.53,2.53,0,0,1-2.55,2.6Zm7-6.83h3.83a3.48,3.48,0,0,0,3.78,3.46c2.49,0,3.89-1.49,3.89-4.3V148.17h3.89V166c0,5-2.91,8-7.74,8-4.53,0-7.64-2.82-7.64-7.14Zm20.48-.23h3.85c.33,2.39,2.66,3.9,6,3.9,3.13,0,5.42-1.62,5.42-3.85,0-1.91-1.46-3.07-4.78-3.85L401,162c-4.53-1.06-6.59-3.26-6.59-6.95,0-4.48,3.64-7.46,9.11-7.46,5.09,0,8.81,3,9,7.21h-3.78c-.37-2.32-2.38-3.76-5.3-3.76-3.08,0-5.12,1.48-5.12,3.74,0,1.8,1.32,2.83,4.58,3.59l2.76.68c5.14,1.2,7.26,3.3,7.26,7.08,0,4.81-3.72,7.82-9.65,7.82-5.56,0-9.3-2.87-9.57-7.37Z"/>
</svg>
